<svg width="77" height="44" viewBox="0 0 77 44" fill="none" xmlns="http://www.w3.org/2000/svg">
<g clip-path="url(#clip0_7_171)">
<path d="M75.46 1.5451H1.53998V42.4549H75.46V1.5451Z" stroke="white" stroke-width="7" stroke-miterlimit="10"/>
<path d="M16.2756 32.5972C16.0128 32.8539 15.7014 33.0553 15.3599 33.1895C15.0183 33.3237 14.6535 33.388 14.2868 33.3785C12.342 33.3785 11.5192 32.0542 11.5148 30.668C11.4977 30.2988 11.5579 29.9302 11.6913 29.5857C11.8248 29.2413 12.0286 28.9286 12.2897 28.6679C12.5507 28.4072 12.8633 28.2042 13.2073 28.072C13.5512 27.9398 13.9189 27.8812 14.2868 27.9001C14.6444 27.8992 14.9986 27.9698 15.3288 28.1077C15.6589 28.2457 15.9583 28.4482 16.2096 28.7035L15.554 29.3569C15.2113 29.0338 14.757 28.8565 14.2868 28.8624C14.0456 28.8495 13.8043 28.8879 13.579 28.9752C13.3536 29.0625 13.1492 29.1967 12.9792 29.3689C12.8092 29.5411 12.6775 29.7475 12.5927 29.9744C12.5079 30.2014 12.4719 30.4438 12.4872 30.6857C12.4746 30.9243 12.5129 31.1628 12.5995 31.3855C12.686 31.6081 12.8189 31.8097 12.9891 31.9767C13.1594 32.1438 13.3632 32.2726 13.587 32.3544C13.8107 32.4363 14.0493 32.4694 14.2868 32.4515C14.779 32.4512 15.2521 32.2598 15.6068 31.9173L16.2756 32.5972Z" fill="white"/>
<path d="M21.8548 30.6812C21.8548 32.0365 21.01 33.3962 19.1708 33.3962C18.8114 33.4156 18.4519 33.3584 18.1161 33.2285C17.7802 33.0987 17.4755 32.8989 17.222 32.6425C16.9686 32.3861 16.772 32.0788 16.6453 31.7408C16.5186 31.4028 16.4646 31.0417 16.4868 30.6812C16.4868 29.2995 17.3668 27.9133 19.1796 27.9133C19.5411 27.9022 19.9009 27.9668 20.2361 28.1031C20.5712 28.2394 20.8744 28.4443 21.1261 28.7048C21.3779 28.9653 21.5727 29.2756 21.6982 29.6159C21.8237 29.9563 21.877 30.3191 21.8548 30.6812ZM17.4548 30.6812C17.4768 31.5642 17.9432 32.4471 19.1752 32.4471C20.4072 32.4471 20.8868 31.5377 20.8868 30.6812C20.8868 29.8248 20.4116 28.805 19.1752 28.805C17.9388 28.805 17.4284 29.7983 17.4504 30.6812H17.4548Z" fill="white"/>
<path d="M26.0216 27.9972H27.0116V33.2594H26.3956L23.6456 29.7277V33.2594H22.6468V28.006H23.4476L26.0128 31.264L26.0216 27.9972Z" fill="white"/>
<path d="M29.3788 28.9154H27.72V28.0325H32.0276V28.9154H30.3688V33.2682H29.3788V28.9154Z" fill="white"/>
<path d="M35.8864 32.2661H33.1496L32.7096 33.2593H31.6404L33.99 28.006H35.0636L37.4132 33.2593H36.3352L35.8864 32.2661ZM34.5268 29.1097L33.5544 31.3434H35.4992L34.5268 29.1097Z" fill="white"/>
<path d="M38.0072 33.2593V28.006H38.9884V33.2593H38.0072Z" fill="white"/>
<path d="M43.5688 27.9972H44.5588V33.2594H43.9428L41.1928 29.7277V33.2594H40.2028V28.006H41.0036L43.5688 31.264V27.9972Z" fill="white"/>
<path d="M50.2964 29.454L48.6068 31.7363H48.4132L46.7456 29.4452V33.2638H45.76V28.0325H46.8952L48.532 30.2883L50.1732 28.0325H51.2996V33.2814H50.314L50.2964 29.454Z" fill="white"/>
<path d="M56.3904 33.2593H52.47V28.006H56.3904V28.964H53.4468V30.1736H56.2804V31.0962H53.4468V32.2837H56.386L56.3904 33.2593Z" fill="white"/>
<path d="M60.8652 27.9972H61.8508V33.2594H61.2392L58.4848 29.7277V33.2594H57.4992V28.006H58.2868L60.852 31.264L60.8652 27.9972Z" fill="white"/>
<path d="M64.2224 28.9154H62.5636V28.0325H66.8712V28.9154H65.208V33.2682H64.2224V28.9154Z" fill="white"/>
<path d="M22.0088 25.5295V19.4727H14.6696V25.5295H11.8536V10.5464H14.6696V16.8593H22.0088V10.5464H24.8028V25.5295H22.0088Z" fill="white"/>
<path d="M38.0468 25.5074H26.8708V10.5243H38.0468V13.2658H29.6868V16.7135H37.774V19.3623H29.6868V22.735H38.0468V25.5074Z" fill="white"/>
<path d="M62.4492 22.682H54.6436L53.3632 25.5074H50.314L57.0108 10.5243H60.0908L66.792 25.5074H63.712L62.4492 22.682ZM58.5464 13.6719L55.7744 20.051H61.3184L58.5464 13.6719Z" fill="white"/>
<path d="M47.6168 17.9849L42.1696 10.5243H39.4592V10.6523L44.4928 17.932L39.3052 25.4235V25.5074H42.2004L47.6168 17.9849Z" fill="#6185C4"/>
<path d="M48.2328 18.8281L46.86 20.7308L50.1028 25.5074H53.1124L48.2328 18.8281Z" fill="white"/>
<path d="M48.2284 17.1418L52.9892 10.5243H50.0148L46.8512 15.2612L48.2284 17.1418Z" fill="white"/>
</g>
<defs>
<clipPath id="clip0_7_171">
<rect width="77" height="44" fill="white"/>
</clipPath>
</defs>
</svg>
