<svg width="200" height="50" viewBox="0 0 200 50" fill="none" xmlns="http://www.w3.org/2000/svg">
<g clip-path="url(#clip0_1568_18)">
<path d="M47.0601 48.9063L47.8085 47.8579C48.3278 48.3594 48.8704 48.6748 49.5273 48.6748C50.0466 48.6748 50.3582 48.4343 50.3582 48.0425V48.0236C50.3582 47.6499 50.1621 47.4578 49.1989 47.1688C48.0383 46.8254 47.2905 46.4503 47.2905 45.1167V45.0993C47.2905 43.8815 48.1304 43.076 49.306 43.076C50.1453 43.076 50.8606 43.3816 51.4454 43.9277L50.7853 45.0396C50.2757 44.6281 49.774 44.38 49.2878 44.38C48.8036 44.38 48.5478 44.6387 48.5478 44.964V44.9829C48.5478 45.4254 48.7945 45.5683 49.7889 45.8656C50.9592 46.2211 51.6161 46.709 51.6161 47.8799V47.8973C51.6161 49.2315 50.7444 49.9773 49.5014 49.9773C48.6021 49.981 47.7329 49.5999 47.0588 48.9063" fill="#005480"/>
<path d="M56.7122 43.1221H57.8806L60.3511 49.8842H59.0269L58.4985 48.379H56.0631L55.5373 49.8842H54.2443L56.7122 43.1221ZM58.0461 47.0735L57.2802 44.8981L56.5142 47.0735H58.0461Z" fill="#005480"/>
<path d="M66.9979 43.1713V44.5328H65.2453V49.8835H63.9783V44.5328H62.2257V43.1713H66.9979Z" fill="#005480"/>
<path d="M71.367 44.4851V45.8466H74.0841V47.1605H71.367V48.5696H74.4943V49.8827H70.1096V43.1697H74.4521V44.4836L71.367 44.4851Z" fill="#005480"/>
<path d="M81.9007 48.5409V49.8835H77.7626V43.1705H79.0284V48.5409H81.9007Z" fill="#005480"/>
<path d="M92.2864 43.1713H93.5535V49.8835H92.2864V43.1713Z" fill="#005480"/>
<path d="M149.887 43.0555C148.109 43.0555 146.818 44.6213 146.818 46.5304V46.5471C146.818 48.4554 148.094 49.9977 149.872 49.9977C151.649 49.9977 152.942 48.435 152.942 46.5289V46.5085C152.942 44.6009 151.664 43.0563 149.888 43.0563L149.887 43.0555ZM149.874 44.4171C150.895 44.4171 151.617 45.3777 151.617 46.5372C151.617 47.6975 150.908 48.6385 149.888 48.6385C148.867 48.6385 148.146 47.6794 148.146 46.5176C148.146 45.3557 148.852 44.4171 149.873 44.4171H149.874ZM116.868 43.169V49.882H118.137V47.7338H119.129L120.365 49.882H121.845L120.44 47.4842C121.171 47.1666 121.672 46.4888 121.672 45.6212C121.672 44.7529 121.501 44.2257 121.179 43.8513C120.802 43.4103 120.232 43.169 119.499 43.169H116.868ZM118.134 44.5063H119.393C120.011 44.5063 120.389 44.8293 120.389 45.4389C120.389 46.0478 120.032 46.4328 119.417 46.4328H118.132L118.134 44.5063ZM133.593 43.1705V49.8835H135.839C137.65 49.8835 138.902 48.4146 138.902 46.5161C138.902 44.6175 137.649 43.1698 135.84 43.1698L133.593 43.1705ZM134.863 44.5063H135.84C136.877 44.5063 137.576 45.3383 137.576 46.5365C137.576 47.7354 136.877 48.5485 135.84 48.5485H134.863V44.5063Z" fill="#005480"/>
<path d="M18.3386 32.4645C18.6422 32.9042 19.083 33.1857 19.5644 33.2471C20.0459 33.3085 20.5285 33.1448 20.9065 32.792C21.0934 32.6165 21.2488 32.3997 21.3638 32.1542C21.4788 31.9087 21.5512 31.6391 21.5768 31.361C21.6025 31.0828 21.5808 30.8015 21.5131 30.5331C21.4454 30.2647 21.333 30.0145 21.1824 29.7967C19.657 27.5984 18.8293 24.854 18.8391 22.027C18.8391 19.2261 19.618 16.5832 21.098 14.3836C21.3949 13.9385 21.5285 13.3746 21.4697 12.815C21.4108 12.2554 21.1642 11.7457 20.7838 11.3974C20.5951 11.2245 20.379 11.0968 20.1478 11.0216C19.9166 10.9464 19.6749 10.9252 19.4367 10.9591C19.1984 10.9931 18.9683 11.0815 18.7595 11.2195C18.5506 11.3574 18.3673 11.542 18.2199 11.7627C16.2336 14.7157 15.1872 18.2655 15.1872 22.027C15.1872 25.8143 16.3069 29.5214 18.3393 32.4653L18.3386 32.4645ZM14.4804 6.2123C14.0941 5.87245 13.6079 5.725 13.1285 5.80228C12.6491 5.87956 12.2155 6.17526 11.9229 6.62454C8.99154 11.119 7.44019 16.4879 7.44019 22.1518C7.44019 27.7658 8.96558 33.0984 11.8515 37.5732C12.1426 38.0236 12.5751 38.3211 13.0541 38.4005C13.5332 38.4799 14.0197 38.3347 14.407 37.9968C14.7936 37.6576 15.0489 37.1534 15.1167 36.595C15.1845 36.0366 15.0593 35.4697 14.7686 35.0189C12.3643 31.2868 11.0914 26.8377 11.0914 22.1526C11.0914 17.4266 12.3831 12.9472 14.827 9.19552C15.1197 8.74591 15.2475 8.17934 15.1823 7.6201C15.1171 7.06085 14.8642 6.55457 14.4791 6.2123H14.4804ZM3.65721 22.0792C3.65721 15.3458 5.37344 8.86195 8.62545 3.32968C8.89917 2.86397 9.00292 2.29062 8.91388 1.73577C8.82483 1.18091 8.55028 0.690006 8.15063 0.371038C7.75098 0.0520709 7.25896 -0.0688289 6.78281 0.0349355C6.30666 0.1387 5.88538 0.458629 5.61166 0.924342C1.94163 7.16914 0.000808716 14.4827 0.000808716 22.0807C0.000808716 29.6961 1.95007 37.0256 5.64022 43.2795C5.7759 43.5098 5.94923 43.7067 6.1503 43.8588C6.35137 44.011 6.57623 44.1154 6.81199 44.1661C7.04774 44.2169 7.28977 44.2129 7.52421 44.1545C7.75866 44.096 7.9809 43.9843 8.17822 43.8256C8.376 43.6676 8.54511 43.4658 8.67589 43.2316C8.80667 42.9975 8.89655 42.7355 8.94038 42.4608C8.98421 42.1861 8.98113 41.9041 8.93132 41.6308C8.88152 41.3575 8.78596 41.0983 8.65012 40.8681C5.38058 35.329 3.65851 28.8308 3.65851 22.0792H3.65721ZM179.101 32.792C179.479 33.1451 179.962 33.3089 180.444 33.2475C180.925 33.1861 181.366 32.9045 181.67 32.4645C183.706 29.5027 184.817 25.8215 184.82 22.0263C184.82 18.2647 183.772 14.7149 181.79 11.762C181.642 11.5414 181.459 11.3569 181.25 11.2191C181.041 11.0812 180.811 10.9928 180.573 10.9588C180.334 10.9248 180.093 10.9459 179.861 11.0209C179.63 11.0959 179.414 11.2233 179.225 11.3959C179.036 11.568 178.878 11.7819 178.76 12.0253C178.642 12.2687 178.566 12.5369 178.537 12.8144C178.508 13.092 178.526 13.3734 178.591 13.6427C178.656 13.912 178.765 14.1638 178.913 14.3836C180.385 16.5613 181.181 19.2547 181.172 22.0263C181.172 24.8854 180.359 27.5759 178.826 29.7975C178.675 30.0152 178.562 30.2654 178.495 30.5338C178.427 30.8022 178.405 31.0836 178.431 31.3618C178.457 31.6399 178.529 31.9095 178.644 32.155C178.759 32.4006 178.915 32.6173 179.102 32.7928M185.599 37.9968C185.987 38.3346 186.474 38.4798 186.953 38.4004C187.432 38.321 187.865 38.0236 188.156 37.5732C191.042 33.0991 192.567 27.7628 192.567 22.1503C192.567 16.4872 191.018 11.1168 188.088 6.62378C187.795 6.17451 187.362 5.8788 186.882 5.80152C186.403 5.72424 185.916 5.8717 185.53 6.21155C185.339 6.38051 185.178 6.5917 185.057 6.83306C184.936 7.07442 184.857 7.34123 184.824 7.61825C184.791 7.89527 184.806 8.17707 184.867 8.44757C184.927 8.71807 185.033 8.97197 185.178 9.19477C187.624 12.9465 188.916 17.4259 188.916 22.1518C188.916 26.8339 187.648 31.2853 185.239 35.0181C185.094 35.2412 184.989 35.4953 184.929 35.7658C184.869 36.0363 184.856 36.318 184.889 36.5946C184.923 36.8713 185.003 37.1375 185.125 37.3781C185.247 37.6187 185.407 37.829 185.599 37.9968ZM191.383 3.33119C194.633 8.86271 196.351 15.3473 196.351 22.0785C196.351 28.83 194.623 35.3305 191.359 40.8673C191.223 41.0975 191.128 41.3566 191.078 41.6298C191.028 41.903 191.025 42.1851 191.068 42.4598C191.112 42.7344 191.202 42.9964 191.332 43.2306C191.463 43.4648 191.632 43.6668 191.83 43.8248C192.027 43.9837 192.249 44.0956 192.484 44.1542C192.718 44.2128 192.96 44.217 193.196 44.1664C193.432 44.1158 193.656 44.0114 193.858 43.8594C194.059 43.7073 194.232 43.5105 194.368 43.2802C198.05 37.0248 199.999 29.6954 199.999 22.0785C199.999 14.4842 198.061 7.16763 194.392 0.923585C194.117 0.463978 193.696 0.149919 193.223 0.0497586C192.749 -0.0504016 192.261 0.0714439 191.864 0.388778C191.467 0.706111 191.194 1.19325 191.104 1.74417C191.014 2.29509 191.114 2.8652 191.383 3.33044" fill="#00ADEE"/>
<path d="M35.467 9.10322C31.0791 9.10322 25.4825 10.9337 25.4825 17.2224C25.4825 26.7454 38.4075 23.6033 38.4075 27.5457C38.4075 29.2831 37.0379 29.7498 35.75 29.7498C34.9452 29.7498 34.2195 29.4699 33.695 28.9994C33.1322 28.4851 32.8103 27.7325 32.8103 26.7454H24.8392C25.2806 33.3616 30.5949 35.0975 35.4261 35.0975C43.1589 35.0975 46.7822 31.6279 46.7822 26.5124C46.7822 17.3131 33.4561 19.6141 33.4561 16.1891C33.4561 14.9691 34.3804 14.4532 35.8299 14.4532C36.4725 14.4532 37.0762 14.6393 37.5208 15.0613C37.9635 15.4834 38.2452 16.0469 38.327 16.8464H45.9377C45.4535 10.3225 40.0588 9.10095 35.4677 9.10095L35.467 9.10322ZM154.175 9.107C151.156 9.107 149.251 11.591 148.203 13.4676V9.80818H140.512V34.3956H148.887V22.2403C148.887 19.2866 148.945 16.7337 151.246 16.8018C153.478 16.8699 153.661 18.2541 153.661 21.8674V34.3956H162.035V22.2426C162.035 19.2873 162.015 16.8154 164.371 16.8064C166.586 16.7988 166.789 18.2526 166.789 21.8666V34.3948H175.163V19.8493C175.163 13.1401 172.55 9.10852 167.24 9.10852C164.186 9.10852 162.599 10.6516 160.786 13.6068C159.779 10.9791 157.667 9.10625 154.175 9.10625V9.107Z" fill="#005480"/>
<path d="M48.1921 9.14331V12.9298H54.9947V9.14331H48.1921ZM48.1921 14.5576V34.5279H54.9947V14.5576H48.1921Z" fill="#005480"/>
<path d="M68.3078 13.9827C65.6581 13.9827 63.9899 15.4728 63.0435 18.5952H62.9754V14.5561H56.7933V34.5264H63.5992V27.6281C63.5979 23.3219 65.0058 21.7978 67.7846 21.7978C68.2416 21.7978 68.7336 21.9491 69.1906 22.0247V14.0992C68.8972 14.0644 68.6012 13.9842 68.3078 13.9842V13.9827ZM107.109 13.9858C103.544 13.9858 98.9961 15.4721 98.9961 20.5793C98.9961 28.3172 109.497 25.7643 109.497 28.9646C109.497 30.3746 108.383 30.755 107.337 30.755C106.683 30.755 106.095 30.5266 105.669 30.1446C105.212 29.7256 104.95 29.1144 104.95 28.3172H98.4743C98.8326 33.6921 103.152 35.0998 107.075 35.0998C113.356 35.0998 116.299 32.2807 116.299 28.1258C116.299 20.6549 105.473 22.5232 105.473 19.7419C105.473 18.751 106.224 18.332 107.404 18.332C107.925 18.332 108.415 18.4855 108.774 18.8259C109.136 19.1693 109.364 19.6262 109.431 20.2729H115.613C115.218 14.9766 110.838 13.985 107.107 13.985L107.109 13.9858ZM79.1128 14.5561V26.7144C79.1128 32.4327 81.5307 35.0983 85.2598 35.0983C88.073 35.0983 89.7399 34.3358 91.4412 31.5916V34.5264H97.7525V14.5561H90.9498V24.1593C90.9498 27.2454 90.328 28.9624 88.3664 28.9624C86.7307 28.9624 85.9128 28.0865 85.9128 25.3438V14.5561H79.1128Z" fill="#005480"/>
<path d="M125.249 9.80743L127.907 15.9554L130.726 9.80743H139.907L132.698 21.4915L139.988 34.3956H130.645L127.665 27.3558L124.605 34.3956H115.343L122.914 21.5369L115.947 9.80743H125.249Z" fill="#005480"/>
<path d="M173.991 7.12524V7.56244H173.261V9.80894H172.854V7.56244H172.123V7.12524H173.991ZM176.252 7.12524H176.683V9.80894H176.279V7.88391L175.552 9.1486H175.539L174.818 7.89147V9.80894H174.42V7.12524H174.85L175.551 8.39296L176.252 7.12524Z" fill="#005480"/>
<path d="M70.6401 9.14331V12.9298H77.4427V9.14331H70.6401ZM70.6401 14.5576V34.5279H77.4427V14.5576H70.6401Z" fill="#005480"/>
<path d="M89.1336 48.5409V49.8835H84.9955V43.1705H86.2613V48.5409H89.1336Z" fill="#005480"/>
<path d="M101.493 43.1713V44.5328H99.7406V49.8835H98.4735V44.5328H96.7209V43.1713H101.493Z" fill="#005480"/>
<path d="M105.862 44.4851V45.8466H108.579V47.1605H105.862V48.5696H108.989V49.8827H104.604V43.1697H108.947V44.4836L105.862 44.4851Z" fill="#005480"/>
<path d="M126.928 43.1221H128.096L130.567 49.8842H129.242L128.714 48.379H126.279L125.753 49.8842H124.46L126.928 43.1221ZM128.262 47.0735L127.496 44.8981L126.73 47.0735H128.262Z" fill="#005480"/>
<path d="M142.226 43.1713H143.493V49.8835H142.226V43.1713Z" fill="#005480"/>
</g>
<defs>
<clipPath id="clip0_1568_18">
<rect width="200" height="50" fill="white"/>
</clipPath>
</defs>
</svg>
