<svg xmlns="http://www.w3.org/2000/svg" width="127" height="127" viewBox="0 0 127 127"
    font-family="'coolveticaregular'">
    <path fill="#FFFFFE" fill-rule="evenodd"
        d="M127 78.14c0 4.635-3.77 8.404-8.403 8.404h-16.54c-.849 0-1.54-.69-1.54-1.54 0-.85.691-1.54 1.54-1.54h16.54a5.328 5.328 0 0 0 5.322-5.323V48.859a5.329 5.329 0 0 0-5.322-5.323c-.85 0-1.542-.69-1.542-1.54 0-.85.692-1.54 1.542-1.54 4.633 0 8.403 3.77 8.403 8.403v29.282zm-29.548 7.042l-.224-.015c-.875-.15-1.437-.949-1.294-1.784.006-.039.709-4.225 3.349-12.334 3.627-11.125.534-25.52-.903-28.36a1.53 1.53 0 0 1-.09-1.176c.128-.39.4-.708.768-.893a1.533 1.533 0 0 1 2.07.678c1.626 3.211 5.044 18.552 1.084 30.704-2.499 7.676-3.237 11.86-3.244 11.902a1.536 1.536 0 0 1-1.516 1.278zm-3.89 1.362h-2.937c-1.855 0-3.455 1.269-3.98 3.157-.347 1.258-1.739 5.54-2.014 6.386a1.542 1.542 0 0 1-1.952 1.002 1.522 1.522 0 0 1-.89-.764 1.52 1.52 0 0 1-.091-1.176l.106-.329c1.045-3.222 1.675-5.219 1.875-5.94.896-3.24 3.688-5.416 6.946-5.416h2.938c.85 0 1.54.69 1.54 1.54 0 .85-.69 1.54-1.54 1.54zm-7.018 27.314c0 .85-.69 1.541-1.541 1.541a1.542 1.542 0 0 1-1.54-1.541v-13.323a1.541 1.541 0 0 1 3.081 0v13.323zM78.141 127H50.647c-.554 0-1.068-.3-1.342-.785a1.538 1.538 0 0 1 .022-1.55l4.164-6.902a1.54 1.54 0 1 1 2.637 1.591l-2.752 4.565h3.374l5.405-9.71a1.54 1.54 0 1 1 2.69 1.498l-4.57 8.212H78.14a5.328 5.328 0 0 0 5.323-5.322c0-.849.69-1.54 1.539-1.54.85 0 1.541.691 1.541 1.54 0 4.633-3.77 8.403-8.403 8.403zm-33.087-2.74c-.338 0-.661-.11-.931-.316a1.53 1.53 0 0 1-.593-1.016c-.056-.408.05-.812.298-1.141.085-.11 8.416-11.162 12.38-21.963 2.921-7.952 10.664-30.626 11.409-39.916l.035-.442c.162-1.906.384-4.515-.793-5.889-.554-.645-1.423-1-2.655-1.086a6.114 6.114 0 0 0-.416-.015c-2.986 0-3.786 2.387-4.45 7.738-.051.422-.103.835-.156 1.235-.434 3.174-1.76 11.463-4.712 19.864a1.543 1.543 0 0 1-1.963.943 1.53 1.53 0 0 1-.88-.786c-.178-.371-.2-.79-.063-1.178 2.86-8.14 4.145-16.18 4.564-19.26.054-.386.104-.786.153-1.194.515-4.162 1.292-10.445 7.456-10.445.22 0 .447.009.682.026 2.066.142 3.674.868 4.778 2.155 2.018 2.353 1.721 5.843 1.523 8.152l-.034.429c-.771 9.629-8.625 32.666-11.585 40.73-4.152 11.308-12.469 22.304-12.82 22.766a1.53 1.53 0 0 1-1.227.61zM55.07 86.924c4.155-9.46 7.233-30.335 7.264-30.543a1.548 1.548 0 0 1 1.746-1.302c.84.123 1.423.906 1.302 1.746-.13.876-3.193 21.55-7.493 31.338a1.537 1.537 0 0 1-2.032.789 1.525 1.525 0 0 1-.81-.846 1.536 1.536 0 0 1 .023-1.182zm-13.072 30.675a1.544 1.544 0 0 1-1.54-1.54l-.001-25.43a4.222 4.222 0 0 0-4.217-4.217c-.85 0-1.54-.69-1.54-1.54 0-.85.69-1.54 1.54-1.54 4.024 0 7.297 3.273 7.297 7.297v20.65c3.595-5.85 7.452-14.919 8.55-18.307a1.535 1.535 0 0 1 1.94-.991 1.545 1.545 0 0 1 .99 1.94c-1.211 3.746-7.086 17.837-11.872 23.168-.296.324-.713.51-1.147.51zM30.372 85.182c-.158 0-.316-.024-.467-.07a1.546 1.546 0 0 1-1-1.939c.617-1.926 6.071-19.151 7.316-30.586.99-9.133 8.11-24.589 28.499-24.589.42 0 .844.007 1.276.02.303.008 7.513.261 14.184 4.99.336.236.558.59.628.997a1.541 1.541 0 0 1-2.41 1.517c-5.883-4.172-12.43-4.424-12.495-4.425a37.158 37.158 0 0 0-1.1-.016c-18.27 0-24.638 13.728-25.52 21.84-1.262 11.596-6.815 29.22-7.443 31.19a1.538 1.538 0 0 1-1.468 1.071zm-6.83 1.36a1.534 1.534 0 0 1-1.454-1.032 1.53 1.53 0 0 1 .069-1.178c.72-1.488 3.85-10.495 4.684-13.252 1.655-5.473 2.604-11.067 3.522-16.478l.022-.124c.376-2.21.748-4.404 1.165-6.57.256-1.327.697-2.763 1.347-4.372H8.403A5.33 5.33 0 0 0 3.08 48.86v29.282a5.329 5.329 0 0 0 5.323 5.323h9.67c.85 0 1.54.69 1.54 1.54 0 .85-.69 1.54-1.54 1.54h-9.67C3.77 86.544 0 82.774 0 78.141V48.859c0-4.634 3.77-8.403 8.403-8.403h26.202l.237.043a1.522 1.522 0 0 1 1.066.117 1.545 1.545 0 0 1 .684 2.068c-.967 1.918-1.644 3.871-2.017 5.806-.419 2.18-.794 4.387-1.17 6.61-.936 5.512-1.903 11.209-3.615 16.872-.79 2.612-4.034 11.993-4.861 13.702-.254.527-.8.869-1.387.869zM13.955 53.5c-.284 3.759-.425 9.053-.538 13.306-.065 2.474-.123 4.705-.194 5.88a1.541 1.541 0 0 1-1.537 1.447l-.081-.003a1.546 1.546 0 0 1-1.456-1.629c.063-1.063.117-3.045.178-5.339l.009-.326c.115-4.34.257-9.708.547-13.567a1.55 1.55 0 0 1 1.542-1.425c.956.07 1.592.81 1.53 1.656zm4.446.126a94.554 94.554 0 0 0-.538 4.167 1.536 1.536 0 0 1-1.53 1.379l-.14-.008a1.536 1.536 0 0 1-1.395-1.692c.252-2.386.56-4.313.563-4.33a1.532 1.532 0 0 1 1.76-1.277c.407.063.764.282 1.006.616.24.332.338.74.274 1.145zm-.977-4.357h-5.31c-1.185.003-2.202.007-2.823.273-.258.112-.648.28-.648 1.395l-.007 23.974c-.016 1.114-.037 2.63.383 3.057.165.17.555.195.773.195.634 0 1.215.035 1.744.068.444.03.807.054 1.11.054.783 0 1.027-.057 1.415-1.348.522-1.731 3.19-10.7 4.474-17.324l.027-.13c.2-.957 1.492-7.113 1.942-9.364a1.544 1.544 0 0 1 1.814-1.207 1.54 1.54 0 0 1 1.206 1.809c-.488 2.448-1.97 9.502-1.97 9.502-1.355 6.994-4.222 16.539-4.543 17.604-.941 3.113-2.777 3.532-4.45 3.532-.404 0-.815-.026-1.222-.051-.469-.03-.984-.065-1.547-.065-1.24 0-2.238-.374-2.965-1.111-1.325-1.342-1.297-3.332-1.27-5.256l.006-.735V50.937c0-2.6 1.366-3.732 2.513-4.224 1.074-.462 2.337-.526 3.542-.526l5.806.001c.85 0 1.54.691 1.54 1.54 0 .85-.69 1.54-1.54 1.54zm2.267 32.093a1.541 1.541 0 0 1-1.413-2.149c3.657-8.49 5.053-16.66 6.403-24.559.385-2.26.769-4.503 1.199-6.746a1.543 1.543 0 0 1 1.805-1.222c.834.161 1.381.97 1.22 1.804-.427 2.221-.807 4.443-1.187 6.674-1.383 8.092-2.81 16.441-6.61 25.269-.244.564-.8.929-1.417.929zm20.765-72.96c0-4.634 3.77-8.402 8.403-8.402h3.786c.85 0 1.54.69 1.54 1.54 0 .85-.69 1.54-1.54 1.54h-3.786a5.329 5.329 0 0 0-5.323 5.322v21.5c2.018-1.716 3.558-2.698 4.019-2.98.243-.147.52-.226.803-.226.542 0 1.033.275 1.314.736.215.352.28.765.183 1.165-.096.4-.343.738-.695.953-.654.401-3.006 1.926-5.774 4.657a1.527 1.527 0 0 1-1.082.445h-.043l-.112-.022-.083.014c-.928 0-1.61-.688-1.61-1.532V8.402zM61.423 0h16.718c4.634 0 8.403 3.768 8.403 8.402V36.24a4.221 4.221 0 0 0 4.215 4.217c.85 0 1.541.69 1.541 1.54 0 .85-.69 1.54-1.541 1.54-4.023 0-7.295-3.273-7.295-7.297V8.402A5.328 5.328 0 0 0 78.14 3.08H61.423c-.85 0-1.54-.69-1.54-1.54 0-.85.69-1.54 1.54-1.54zm-7.172 24.24c2.446-.995 5.49-1.522 8.803-1.522 5.739 0 12.031 1.558 17.265 4.274a1.541 1.541 0 0 1-1.42 2.734c-4.88-2.535-10.454-3.93-15.696-3.93-2.973 0-5.74.462-7.791 1.296a1.537 1.537 0 0 1-2.008-.845 1.544 1.544 0 0 1 .847-2.006zm-2.219-5.223A28.775 28.775 0 0 1 63.4 16.71c6.9 0 11.874 2.369 12.082 2.47a1.54 1.54 0 0 1 .72 2.053 1.552 1.552 0 0 1-1.39.874c-.23 0-.453-.05-.663-.15-.044-.022-4.614-2.139-10.816-2.139-3.544 0-6.938.684-10.088 2.03a1.539 1.539 0 0 1-2.023-.81 1.543 1.543 0 0 1 .81-2.021zm15.705-11.06H53.63c-4.167 0-4.515 1.856-4.515 3.594v9.778c0 .85-.69 1.54-1.54 1.54-.85 0-1.54-.69-1.54-1.54v-9.778c0-2.492.986-6.674 7.595-6.674h14.107c.849 0 1.54.69 1.54 1.54 0 .85-.691 1.54-1.54 1.54zm7.745 5.234c.37.177.65.489.785.878.136.387.112.804-.066 1.176-.255.531-.8.874-1.389.874-.23 0-.453-.052-.664-.153-.184-.085-4.664-2.136-10.813-2.136-3.545 0-6.939.684-10.09 2.03a1.539 1.539 0 0 1-2.023-.812 1.541 1.541 0 0 1 .81-2.02A28.76 28.76 0 0 1 63.4 10.722c6.9 0 11.874 2.37 12.082 2.47zm-2.128-5.234c-.85 0-1.541-.69-1.541-1.54 0-.85.692-1.54 1.541-1.54 6.608 0 7.596 4.182 7.596 6.674v9.778c0 .85-.691 1.54-1.54 1.54-.85 0-1.54-.69-1.54-1.54v-9.778c0-1.738-.35-3.594-4.516-3.594zM39.287 75.931l-1.039 4.702a1.55 1.55 0 0 1-1.503 1.208l-.286-.028a1.545 1.545 0 0 1-1.013-.684 1.52 1.52 0 0 1-.206-1.16l1.038-4.702a1.553 1.553 0 0 1 1.835-1.172 1.543 1.543 0 0 1 1.174 1.836zm44.383-4.68a1.544 1.544 0 0 1-1.51-1.831c.105-.553 1.02-5.424 1.39-9.334.081-.852 1.755-20.878-17.603-23.132a25.035 25.035 0 0 0-2.859-.17c-4.486 0-8.374 1.342-11.554 3.99-5.995 4.988-7.756 13.004-7.872 14.72-.219 3.28-1.907 11.744-3.284 16.464a1.55 1.55 0 0 1-1.478 1.109l-.062-.005-.31-.044c-.876-.252-1.345-1.107-1.108-1.923 1.414-4.844 2.983-13.011 3.17-15.805.14-2.106 2.073-11.142 8.972-16.884 3.751-3.122 8.293-4.705 13.5-4.705 1.05 0 2.138.066 3.242.194 8.559.997 14.784 5.337 18.003 12.551 2.913 6.525 2.38 13.193 2.31 13.932-.374 3.929-1.254 8.677-1.425 9.59-.148.758-.784 1.283-1.522 1.283zM43.453 81.926a1.537 1.537 0 0 1-1.955.959 1.534 1.534 0 0 1-.884-.78 1.524 1.524 0 0 1-.074-1.176c2.048-5.969 4.43-19.089 4.53-19.644a1.546 1.546 0 0 1 1.787-1.259c.407.074.76.298.995.636.236.338.325.747.253 1.152-.024.135-2.434 13.647-4.652 20.112zm7.644 3.201c.394.12.717.387.91.75.194.364.233.78.113 1.173-.08.265-2.015 6.552-4.676 12.074-.258.538-.79.873-1.388.873-.23 0-.454-.05-.666-.152a1.53 1.53 0 0 1-.787-.88 1.526 1.526 0 0 1 .067-1.177c2.577-5.354 4.485-11.575 4.503-11.637a1.53 1.53 0 0 1 1.924-1.024zm-4.15 1.997a1.547 1.547 0 0 1-1.971.925 1.542 1.542 0 0 1-.928-1.97c2.709-7.515 6.13-17.89 7.038-24.641 1.377-10.228 3.206-13.32 5.715-14.992a1.539 1.539 0 0 1 2.135.427c.228.341.31.752.23 1.155-.081.405-.314.753-.657.982-1.404.936-3.015 2.778-4.37 12.839-.943 7.014-4.431 17.616-7.191 25.275zm17.22 21.988c5.034-9.294 10.439-28.167 13.562-42.75 1.704-7.952.857-14.644-2.384-18.842-2.46-3.187-6.231-4.917-11.205-5.138-.298-.013-.586-.02-.872-.02-12.178 0-13.936 11.984-14.164 14.386a1.546 1.546 0 0 1-1.523 1.395l-.16-.009a1.54 1.54 0 0 1-1.383-1.678c.274-2.869 2.389-17.176 17.163-17.176.352 0 .71.009 1.078.024 5.922.267 10.465 2.396 13.505 6.333 3.805 4.929 4.854 12.52 2.955 21.372-3.169 14.797-8.685 34.01-13.864 43.57a1.536 1.536 0 0 1-2.09.619 1.526 1.526 0 0 1-.74-.913 1.523 1.523 0 0 1 .122-1.173zm7.013-32.615a1.545 1.545 0 0 1 1.068 1.9c-.757 2.675-7.551 26.397-13.283 35.686a1.527 1.527 0 0 1-1.31.732 1.55 1.55 0 0 1-.81-.23 1.524 1.524 0 0 1-.689-.955c-.095-.4-.029-.815.187-1.164 5.695-9.228 12.869-34.65 12.936-34.9a1.553 1.553 0 0 1 1.9-1.07zm-.725-26.385c-2.32-2.06-5.509-2.79-7.532-2.79-.271 0-.52.012-.74.036l-.162.009c-.79 0-1.452-.59-1.539-1.37a1.545 1.545 0 0 1 1.364-1.7c.347-.039.721-.06 1.114-.06 2.668 0 6.575.94 9.54 3.572 2.488 2.21 3.824 5.245 3.86 8.776.057 5.782-2.05 14.008-2.29 14.927a1.541 1.541 0 0 1-1.49 1.152l-.337-.04c-.455-.117-.787-.37-.994-.727a1.524 1.524 0 0 1-.157-1.167c.23-.898 2.241-8.828 2.188-14.113-.028-2.677-.978-4.866-2.825-6.505zm-3.443 72.024c-.284.45-.77.718-1.305.718a1.54 1.54 0 0 1-1.301-2.362c9.701-15.37 16.42-44.933 16.487-45.23a1.533 1.533 0 0 1 1.838-1.166c.404.09.746.331.968.68.22.347.29.759.2 1.16-.273 1.226-6.82 30.242-16.887 46.2zm15.047-21.08l-3.966 11.03a95.139 95.139 0 0 1-4.861 9.984 1.548 1.548 0 0 1-1.343.784c-.266 0-.527-.069-.757-.2a1.53 1.53 0 0 1-.727-.93 1.53 1.53 0 0 1 .143-1.168 91.412 91.412 0 0 0 4.675-9.584l3.938-10.96a1.54 1.54 0 1 1 2.898 1.043zm-2.546 12.32a1.546 1.546 0 0 1 1.435-1.639h.007c.903 0 1.58.63 1.634 1.434.02.294.439 7.207-3.704 9.491a1.537 1.537 0 0 1-2.092-.604 1.543 1.543 0 0 1-.132-1.172c.114-.395.376-.722.735-.92 2.015-1.111 2.208-5.233 2.117-6.59zm12.866-52.72c-.387 2.894-1.056 6.527-1.988 10.796l-2.103 9.206a1.538 1.538 0 0 1-1.497 1.183l-.312-.035c-.452-.105-.79-.35-1.003-.702a1.528 1.528 0 0 1-.182-1.165l.715-2.96 1.374-6.19c.911-4.175 1.565-7.722 1.943-10.54.645-4.84.009-9.54-1.89-13.963a1.532 1.532 0 0 1-.015-1.178 1.53 1.53 0 0 1 .823-.845 1.54 1.54 0 0 1 2.022.808c2.122 4.942 2.833 10.186 2.113 15.585zm4.076 7.313l-2.776 12.744a1.547 1.547 0 0 1-1.504 1.21l-.28-.026c-.876-.188-1.404-1.01-1.226-1.84l2.776-12.743a1.55 1.55 0 0 1 1.83-1.177c.83.18 1.36 1.003 1.18 1.832zM93.76 42.987a1.51 1.51 0 0 1 .55-.102c.632 0 1.21.397 1.437.988 2.187 5.695 2.78 12.21 1.769 19.365a1.549 1.549 0 0 1-1.524 1.324l-.187-.01a1.545 1.545 0 0 1-1.047-.605 1.53 1.53 0 0 1-.293-1.14c.939-6.627.403-12.626-1.593-17.83a1.543 1.543 0 0 1 .888-1.99zm10.758-2.535h9.239c.849 0 1.54.69 1.54 1.54 0 .85-.691 1.54-1.54 1.54h-9.239c-.85 0-1.54-.69-1.54-1.54 0-.85.69-1.54 1.54-1.54zm9.18 34.906a1.552 1.552 0 0 1-1.48 1.106l-.063-.005-.31-.044c-.874-.253-1.343-1.111-1.105-1.926 3.794-12.885.81-25.461.68-25.99a1.541 1.541 0 0 1 1.49-1.918c.708 0 1.323.479 1.496 1.162.139.554 3.376 13.735-.708 27.615zm2.799 2.925c1.847 0 1.881 0 1.881-2.95V52.708a1.543 1.543 0 0 1 3.083 0v22.625c0 4.507-1.253 6.029-4.964 6.029h-11.979c-.85 0-1.54-.691-1.54-1.54 0-.849.69-1.54 1.54-1.54h11.979zM105.78 48.499a1.541 1.541 0 0 1 1.487-1.918c.709 0 1.324.479 1.497 1.162.14.555 3.376 13.737-.707 27.615a1.552 1.552 0 0 1-1.48 1.106l-.063-.005-.31-.044c-.875-.253-1.344-1.111-1.105-1.926 3.793-12.885.809-25.461.68-25.99z" />
</svg>